<?xml version="1.0" encoding="utf-8"?>
<!-- Generator: Adobe Illustrator 22.1.0, SVG Export Plug-In . SVG Version: 6.00 Build 0)  -->
<svg version="1.1" id="图层_1" xmlns="http://www.w3.org/2000/svg" xmlns:xlink="http://www.w3.org/1999/xlink" x="0px" y="0px"
	 viewBox="0 0 23 23" style="enable-background:new 0 0 23 23;" xml:space="preserve">
<style type="text/css">
	.st0{fill:#060606;}
</style>
<path class="st0" d="M11.5,0.1c4,0.1,7.1,1.8,9.4,5c0.2,0.3,0.1,0.4-0.2,0.4c-0.2,0.1-0.5,0.1-0.7,0.2C19,6.2,18.6,7.4,19,8.5
	c0.2,0.4,0.2,0.6-0.3,0.8c-1.3,0.6-1.6,2.1-0.7,3.2c0.2,0.2,0.2,0.4,0,0.7c-0.7,1-0.5,2.1,0.5,2.9c0.2,0.2,0.3,0.3,0.2,0.6
	c-0.3,1,0,1.8,0.8,2.4c0.3,0.2,0.3,0.4,0,0.6c-2.8,2.7-6.2,3.8-10,3.2c-4.8-0.7-8.6-4.6-9.4-9.5C-0.7,7.4,3.1,1.8,8.9,0.4
	C9.7,0.2,10.6,0.1,11.5,0.1z M19.2,4.8c-3-3-6.5-4.2-10.6-3.1c-7.2,2-9.8,11-4.7,16.6c3.6,3.9,9.6,4.5,13.8,1.2
	c0.3-0.2,0.4-0.4,0.1-0.7c-0.3-0.5-0.5-1.2-0.4-1.8c0-0.2,0-0.4-0.2-0.6c-0.8-1-1-2.1-0.6-3.3c0.1-0.2,0.1-0.4,0-0.6
	c-0.6-1.4-0.3-2.8,0.8-3.9c0.2-0.2,0.3-0.3,0.2-0.6c-0.1-0.4,0-0.7,0-1.1C17.9,6.1,18.4,5.4,19.2,4.8z"/>
<path class="st0" d="M21,12.3c-0.7,0-1.3-0.6-1.3-1.3c0-0.7,0.6-1.3,1.3-1.3c0.7,0,1.3,0.6,1.3,1.3C22.3,11.7,21.7,12.3,21,12.3z"/>
<path class="st0" d="M19.2,14.7c0-0.4,0.2-0.6,0.6-0.6c0.4,0,0.6,0.2,0.6,0.6c0,0.4-0.3,0.6-0.6,0.6C19.5,15.4,19.3,15.1,19.2,14.7z
	"/>
<path class="st0" d="M22.1,13.6c0.4,0,0.6,0.2,0.6,0.6c0,0.4-0.2,0.6-0.6,0.6c-0.4,0-0.6-0.2-0.6-0.6C21.5,13.9,21.7,13.7,22.1,13.6
	z"/>
<path class="st0" d="M21.8,8c0,0.3-0.2,0.5-0.5,0.5c-0.3,0-0.5-0.2-0.5-0.5c0-0.3,0.2-0.5,0.5-0.5C21.6,7.6,21.8,7.8,21.8,8z"/>
<path class="st0" d="M21.2,17.1c0,0.2-0.1,0.3-0.3,0.3c-0.2,0-0.3-0.1-0.3-0.3c0-0.2,0.1-0.3,0.2-0.3C21.1,16.8,21.1,16.9,21.2,17.1
	z"/>
<path class="st0" d="M8.7,6.4c0,0.8-0.6,1.5-1.5,1.5c-0.8,0-1.5-0.6-1.5-1.5c0-0.8,0.6-1.5,1.5-1.5C8,4.9,8.7,5.6,8.7,6.4z"/>
<path class="st0" d="M3,12c0-0.8,0.7-1.5,1.5-1.5c0.8,0,1.5,0.7,1.5,1.6c0,0.8-0.7,1.5-1.5,1.4C3.6,13.5,3,12.8,3,12z"/>
<path class="st0" d="M16.1,17.8c0,0.8-0.7,1.5-1.5,1.5c-0.8,0-1.5-0.7-1.5-1.5c0-0.8,0.7-1.5,1.5-1.5C15.4,16.3,16.1,17,16.1,17.8z"
	/>
<path class="st0" d="M8.2,17.4c0,0.8-0.7,1.5-1.5,1.5c-0.8,0-1.5-0.7-1.5-1.5c0-0.8,0.7-1.5,1.5-1.5C7.6,15.9,8.2,16.6,8.2,17.4z"/>
<path class="st0" d="M10,11.9c0-0.8,0.7-1.5,1.5-1.5c0.8,0,1.5,0.7,1.5,1.5c0,0.8-0.7,1.5-1.5,1.4C10.6,13.4,10,12.7,10,11.9z"/>
<path class="st0" d="M14.6,5.3c0,0.8-0.6,1.5-1.5,1.5c-0.8,0-1.5-0.6-1.5-1.5c0-0.8,0.7-1.5,1.5-1.5C13.9,3.8,14.6,4.4,14.6,5.3z"/>
<path class="st0" d="M11.4,16.8c0,0.4-0.2,0.6-0.5,0.6c-0.3,0-0.5-0.2-0.6-0.5c0-0.3,0.2-0.5,0.5-0.6C11.2,16.3,11.4,16.5,11.4,16.8
	z"/>
<path class="st0" d="M8.7,13.5c0,0.3-0.2,0.4-0.5,0.4c-0.3,0-0.4-0.2-0.4-0.5C7.8,13.2,8,13,8.2,13C8.5,13,8.7,13.2,8.7,13.5z"/>
<path class="st0" d="M10.7,7.6c0.3,0,0.4,0.2,0.4,0.4c0,0.3-0.2,0.4-0.4,0.4c-0.2,0-0.4-0.2-0.4-0.5C10.3,7.7,10.5,7.6,10.7,7.6z"/>
</svg>
