<?xml version="1.0" encoding="utf-8"?>
<!-- Generator: Adobe Illustrator 22.1.0, SVG Export Plug-In . SVG Version: 6.00 Build 0)  -->
<svg version="1.1" id="图层_1" xmlns="http://www.w3.org/2000/svg" xmlns:xlink="http://www.w3.org/1999/xlink" x="0px" y="0px"
	 viewBox="0 0 23 23" style="enable-background:new 0 0 23 23;" xml:space="preserve">
<path d="M0.5,16.6c0.1-0.3,0.2-0.6,0.3-0.8c0.1-0.3,0.4-0.5,0.7-0.6c0.9-0.2,1.9-0.4,2.8-0.7c0.1,0,0.1,0,0.1,0
	c-0.1-0.6-0.2-1.2-0.2-1.8C4.2,11,4.8,9.5,6,8.3c0.8-0.8,1.6-1.7,2.5-2.5c1.7-1.6,3.7-2.1,5.9-1.6c0.1,0,0.1,0,0.2,0
	c0.2-0.9,0.4-1.7,0.6-2.6c0-0.1,0-0.1,0-0.2c0.1-0.8,0.6-1.1,1.3-1.2c1-0.2,1.8,0.2,2.4,0.9c0.1,0.1,0.2,0.1,0.3,0.1
	c1.4,0,2.5,1.1,2.5,2.5c0,0.1,0.1,0.2,0.2,0.3c0.9,0.8,1.2,2,0.7,3.1c-0.2,0.3-0.4,0.5-0.7,0.6c-1,0.2-1.9,0.5-2.9,0.7
	c0,0-0.1,0-0.1,0C18.9,9,19,9.4,19,9.8c0.1,1.8-0.4,3.4-1.7,4.8c-0.8,0.9-1.7,1.7-2.6,2.6c-1.7,1.6-3.7,2.1-5.9,1.5
	c-0.1,0-0.1,0-0.2,0c-0.1,0.6-0.3,1.1-0.4,1.7c-0.1,0.4-0.2,0.9-0.3,1.3c-0.1,0.3-0.2,0.5-0.5,0.7c-0.3,0.1-0.6,0.2-0.9,0.3
	c-0.2,0-0.4,0-0.6,0c0,0,0,0-0.1,0c-0.7-0.1-1.2-0.4-1.6-0.9c-0.1-0.1-0.2-0.1-0.3-0.1c-1.4,0-2.5-1.1-2.5-2.5
	c0-0.1-0.1-0.2-0.1-0.3c-0.2-0.3-0.5-0.5-0.7-0.8c-0.1-0.2-0.2-0.5-0.3-0.8C0.5,17,0.5,16.8,0.5,16.6z M9.2,17.4c0-3.5,0-7,0-10.5
	c0,0-0.1,0.1-0.1,0.1C8.4,7.7,7.6,8.4,6.9,9.2c-2.1,2.1-1.8,5.6,0.5,7.4C8,17,8.6,17.3,9.2,17.4z M14,16.1c0.1,0,0.1-0.1,0.1-0.1
	c0.7-0.7,1.5-1.5,2.2-2.2c2.3-2.4,1.6-6.5-1.4-7.9c-0.3-0.1-0.6-0.2-0.9-0.3C14,9.1,14,12.6,14,16.1z M10.6,17.6
	c0.7,0,1.3-0.2,1.9-0.4c0.1-0.1,0.2-0.1,0.2-0.3c0-3.8,0-7.5,0-11.3c0-0.1,0-0.1,0-0.2c-0.7,0-1.3,0.2-1.9,0.4
	c-0.2,0.1-0.2,0.1-0.2,0.3c0,3.7,0,7.5,0,11.2C10.6,17.4,10.6,17.5,10.6,17.6z M18.3,3c-0.1-0.2-0.2-0.5-0.3-0.7
	c-0.2-0.5-0.8-0.8-1.3-0.7c-0.1,0-0.2,0.1-0.2,0.2c-0.2,0.9-0.4,1.8-0.7,2.8c0,0.1,0,0.2,0.1,0.3c0.9,0.5,1.7,1.3,2.2,2.2
	c0.1,0.1,0.2,0.2,0.3,0.1c0.9-0.2,1.8-0.5,2.8-0.7c0.1,0,0.2-0.1,0.2-0.2c0.1-0.5-0.2-1.1-0.7-1.4c-0.2-0.1-0.4-0.1-0.6-0.2
	c0.2-0.6,0.4-1.2-0.1-1.7C19.5,2.6,18.9,2.7,18.3,3z M3.1,18.2C3,18.4,3,18.5,2.9,18.7c-0.2,0.5,0,0.9,0.3,1.2
	c0.3,0.3,0.7,0.4,1.2,0.3c0.2-0.1,0.3-0.1,0.5-0.2c0.1,0.2,0.2,0.4,0.3,0.6c0.2,0.5,0.8,0.8,1.3,0.7c0.1,0,0.2-0.1,0.2-0.2
	c0.2-0.9,0.4-1.8,0.7-2.8c0-0.1,0-0.2-0.1-0.3c-0.9-0.5-1.7-1.3-2.2-2.2c-0.1-0.1-0.1-0.1-0.3-0.1c-0.9,0.2-1.9,0.5-2.8,0.7
	c-0.1,0-0.2,0.1-0.2,0.2c-0.1,0.5,0.2,1.1,0.7,1.3C2.7,18,2.9,18.1,3.1,18.2z"/>
</svg>
